<svg xmlns="http://www.w3.org/2000/svg" xmlns:xlink="http://www.w3.org/1999/xlink" width="1080" zoomAndPan="magnify" viewBox="0 0 810 809.999993" height="1080" preserveAspectRatio="xMidYMid meet" version="1.0"><defs><clipPath id="48705b18c1"><path d="M 0 547.964844 L 181.910156 547.964844 L 181.910156 809.714844 L 0 809.714844 Z M 0 547.964844 " clip-rule="nonzero"/></clipPath><clipPath id="7035573713"><path d="M 314.664062 441.921875 L 358.628906 441.921875 L 358.628906 810 L 314.664062 810 Z M 314.664062 441.921875 " clip-rule="nonzero"/></clipPath><clipPath id="d5811cfac0"><path d="M 181.910156 142 L 491.660156 142 L 491.660156 457 L 181.910156 457 Z M 181.910156 142 " clip-rule="nonzero"/></clipPath><clipPath id="d535238065"><path d="M 461.0625 548 L 785 548 L 785 740 L 461.0625 740 Z M 461.0625 548 " clip-rule="nonzero"/></clipPath></defs><rect x="-81" width="972" fill="#ffffff" y="-80.999999" height="971.999992" fill-opacity="1"/><rect x="-81" width="972" fill="#ffffff" y="-80.999999" height="971.999992" fill-opacity="1"/><rect x="-81" width="972" fill="#545454" y="-80.999999" height="971.999992" fill-opacity="1"/><g clip-path="url(#48705b18c1)"><path fill="#ffffff" d="M -65.324219 758.234375 L -65.324219 783.96875 C -65.324219 798.058594 -76.6875 809.53125 -90.792969 809.53125 C -104.855469 809.53125 -116.214844 798.058594 -116.214844 783.96875 L -116.214844 758.234375 L -142.058594 758.234375 L -142.058594 674.78125 C -142.058594 656.558594 -129.808594 641.289062 -113.171875 636.6875 L -83.273438 565.726562 C -79.050781 555.304688 -68.742188 547.925781 -56.75 547.925781 L 96.167969 547.925781 C 108.207031 547.925781 118.46875 555.304688 122.820312 565.726562 L 152.675781 636.6875 C 169.441406 641.289062 181.6875 656.558594 181.6875 674.78125 L 181.6875 758.226562 L 155.675781 758.226562 L 155.675781 783.960938 C 155.675781 798.050781 144.355469 809.523438 130.207031 809.523438 C 116.105469 809.523438 104.742188 798.050781 104.742188 783.960938 L 104.742188 758.226562 L -65.328125 758.226562 L -65.328125 758.230469 Z M -91.378906 705.753906 C -79.597656 705.753906 -70.09375 696.261719 -70.09375 684.40625 C -70.09375 672.679688 -79.597656 663.105469 -91.378906 663.105469 C -103.121094 663.105469 -112.792969 672.679688 -112.792969 684.40625 C -112.792969 696.261719 -103.121094 705.753906 -91.378906 705.753906 Z M 150.566406 684.40625 C 150.566406 672.679688 141.0625 663.105469 129.152344 663.105469 C 117.414062 663.105469 107.785156 672.679688 107.785156 684.40625 C 107.785156 696.261719 117.414062 705.753906 129.152344 705.753906 C 141.0625 705.753906 150.566406 696.261719 150.566406 684.40625 Z M 126.914062 635.210938 L 101.449219 574.042969 C 100.265625 570.878906 97.351562 568.644531 93.804688 568.644531 L -54.382812 568.644531 C -57.804688 568.644531 -60.84375 570.878906 -61.902344 574.042969 L -87.492188 635.210938 L 126.917969 635.210938 Z M 126.914062 635.210938 " fill-opacity="1" fill-rule="nonzero"/></g><g clip-path="url(#7035573713)"><path fill="#a6a6a6" d="M 314.664062 441.921875 L 360.226562 441.921875 L 360.226562 810.21875 L 314.664062 810.21875 Z M 314.664062 441.921875 " fill-opacity="1" fill-rule="nonzero"/></g><path stroke-linecap="butt" transform="matrix(0.538358, 0, 0, 0.537849, 124.307635, 14.830288)" fill-opacity="1" fill="#ff0000" fill-rule="nonzero" stroke-linejoin="miter" d="M 394.720721 250.473092 C 326.189096 250.473092 263.440394 275.420578 215.000254 316.716474 C 213.730478 317.805884 212.467958 318.895294 211.219949 319.999229 C 210.719295 320.442256 210.21864 320.899808 209.717986 321.342834 C 208.651374 322.308778 207.584762 323.274721 206.532662 324.247927 L 205.690982 325.032302 C 204.435717 326.19434 203.194965 327.378165 201.968724 328.56199 C 200.561087 329.927384 199.160705 331.30004 197.782091 332.687222 C 196.425245 334.052616 195.075654 335.41801 193.747831 336.812454 C 192.376473 338.257738 191.034139 339.746598 189.684548 341.220933 C 189.532175 341.387976 189.372546 341.547756 189.220173 341.722061 C 188.059235 343.000302 186.920065 344.293069 185.780894 345.593098 C 184.540141 347.016593 183.335668 348.461877 182.123939 349.907161 C 182.080404 349.965263 182.015101 350.008839 181.971566 350.066941 C 141.469339 398.444001 117.060617 460.794558 117.060617 528.84636 C 117.060617 682.503989 241.440618 807.183315 394.720721 807.183315 C 463.404719 807.183315 526.262259 782.112363 574.753191 740.649424 L 574.782214 740.685738 L 575.943152 739.683481 C 576.095525 739.545489 576.255154 739.41476 576.407527 739.276768 C 577.35079 738.463342 578.294052 737.63539 579.222802 736.807439 C 579.955644 736.153793 580.681231 735.500147 581.406817 734.839238 C 581.617237 734.650407 581.827657 734.468839 582.030821 734.280008 C 583.003107 733.386692 583.953625 732.493376 584.911399 731.592797 C 585.76759 730.779371 586.623782 729.973208 587.472718 729.152519 C 587.588812 729.036315 587.69765 728.920111 587.813744 728.81117 C 588.902123 727.750811 589.961479 726.690453 591.035347 725.622831 C 591.347349 725.310533 591.659351 724.998236 591.971353 724.685938 C 593.226618 723.41496 594.460114 722.129457 595.693611 720.83669 C 595.809705 720.713224 595.94031 720.589757 596.06366 720.466291 C 597.471297 718.977431 598.878935 717.481308 600.250293 715.963397 C 601.512813 714.576215 602.739054 713.159982 603.97255 711.743749 L 604.661857 710.966637 C 605.713958 709.746498 606.751546 708.511833 607.781878 707.277169 C 648.109964 658.950948 672.409849 596.723857 672.409849 528.839098 C 672.409849 375.174207 548.000824 250.458567 394.720721 250.458567 Z M 394.720721 312.53314 C 513.832966 312.53314 610.502827 409.439778 610.502827 528.839098 C 610.502827 579.685487 592.987174 626.464746 563.658976 663.403003 L 259.159435 360.619691 C 296.207871 330.559242 343.37098 312.525877 394.713465 312.525877 Z M 226.101724 393.941107 L 530.659312 696.775258 C 493.545573 727.017275 446.237348 745.152318 394.720721 745.152318 C 275.608476 745.152318 178.967639 648.238418 178.967639 528.84636 C 178.967639 477.840191 196.606641 430.930203 226.094468 393.933844 Z M 226.101724 393.941107 " stroke="#ff0000" stroke-width="1" stroke-opacity="1" stroke-miterlimit="4"/><g clip-path="url(#d5811cfac0)"><path stroke-linecap="square" transform="matrix(2.400483, 0, 0, 2.526705, 505.03421, -34.685662)" fill="none" stroke-linejoin="miter" d="M -5.808983 132.170236 C -5.808983 133.168943 -5.835019 134.166104 -5.885465 135.163265 C -5.937538 136.161972 -6.01402 137.157587 -6.116538 138.15011 C -6.219057 139.144178 -6.347611 140.135155 -6.502203 141.12304 C -6.656794 142.110925 -6.835794 143.094172 -7.040831 144.074327 C -7.245868 145.052936 -7.475314 146.026907 -7.730796 146.99624 C -7.986279 147.964027 -8.26617 148.927177 -8.572098 149.882596 C -8.876399 150.838015 -9.206736 151.785704 -9.561482 152.72721 C -9.914601 153.667169 -10.293757 154.597852 -10.695694 155.520806 C -11.097631 156.443759 -11.523978 157.355891 -11.973106 158.258747 C -12.422235 159.161603 -12.895772 160.053636 -13.392091 160.934848 C -13.886783 161.814514 -14.405885 162.683358 -14.94614 163.539834 C -15.486396 164.397856 -16.049434 165.240419 -16.633626 166.070613 C -17.217818 166.900807 -17.823165 167.717088 -18.449667 168.519455 C -19.076168 169.321821 -19.723824 170.108728 -20.391007 170.881721 C -21.058191 171.653168 -21.744901 172.409155 -22.451139 173.149682 C -23.157377 173.888663 -23.881516 174.612185 -24.625181 175.3187 C -25.370473 176.025216 -26.132039 176.713179 -26.911504 177.384137 C -27.69097 178.055095 -28.486708 178.707501 -29.300346 179.339809 C -30.112357 179.973663 -30.942268 180.588966 -31.786825 181.182624 C -32.631381 181.777829 -33.49221 182.352935 -34.366058 182.907944 C -35.241533 183.462953 -36.130026 183.996318 -37.031537 184.511132 C -37.934675 185.024399 -38.849205 185.516022 -39.776752 185.987548 C -40.7043 186.457528 -41.643238 186.905864 -42.595195 187.334102 C -43.545525 187.760794 -44.507245 188.165842 -45.478729 188.547701 C -46.45184 188.929559 -47.433088 189.289774 -48.422472 189.625253 C -49.413484 189.962278 -50.412631 190.274567 -51.418288 190.565212 C -52.425572 190.854311 -53.439366 191.121767 -54.459668 191.364487 C -55.47997 191.607206 -56.506782 191.82519 -57.538475 192.019985 C -58.570168 192.214779 -59.606743 192.386383 -60.646573 192.531706 C -61.68803 192.678575 -62.731114 192.800708 -63.77908 192.899651 C -64.825419 192.997048 -65.875012 193.069709 -66.924606 193.119181 C -67.975826 193.168652 -69.027047 193.193388 -70.079895 193.193388 C -71.131115 193.193388 -72.182336 193.168652 -73.233557 193.119181 C -74.284777 193.069709 -75.334371 192.997048 -76.380709 192.899651 C -77.427048 192.800708 -78.47176 192.678575 -79.511589 192.531706 C -80.553046 192.386383 -81.589621 192.214779 -82.621315 192.019985 C -83.653008 191.82519 -84.678192 191.607206 -85.698495 191.364487 C -86.720424 191.121767 -87.734217 190.854311 -88.739874 190.565212 C -89.747158 190.274567 -90.746306 189.962278 -91.73569 189.625253 C -92.726702 189.289774 -93.707949 188.929559 -94.679433 188.547701 C -95.652545 188.165842 -96.612638 187.760794 -97.564595 187.334102 C -98.514924 186.905864 -99.453863 186.457528 -100.383038 185.987548 C -101.310585 185.516022 -102.225114 185.024399 -103.128253 184.511132 C -104.029764 183.996318 -104.918257 183.462953 -105.793732 182.907944 C -106.667579 182.352935 -107.526781 181.777829 -108.372965 181.182624 C -109.217522 180.588966 -110.045805 179.973663 -110.859443 179.339809 C -111.673082 178.707501 -112.46882 178.055095 -113.248285 177.384137 C -114.027751 176.713179 -114.789316 176.025216 -115.532982 175.3187 C -116.276647 174.612185 -117.002412 173.888663 -117.70865 173.149682 C -118.414888 172.409155 -119.101599 171.653168 -119.768782 170.881721 C -120.435966 170.108728 -121.083622 169.321821 -121.710123 168.519455 C -122.336625 167.717088 -122.941971 166.900807 -123.526164 166.070613 C -124.110356 165.240419 -124.673394 164.39631 -125.213649 163.539834 C -125.753905 162.683358 -126.271379 161.814514 -126.767698 160.934848 C -127.264018 160.053636 -127.735928 159.161603 -128.185056 158.258747 C -128.635812 157.355891 -129.062158 156.443759 -129.464096 155.520806 C -129.866033 154.597852 -130.243561 153.667169 -130.598307 152.72721 C -130.953054 151.785704 -131.281763 150.838015 -131.587691 149.882596 C -131.891992 148.927177 -132.173511 147.964027 -132.427366 146.99624 C -132.682848 146.026907 -132.913922 145.052936 -133.118958 144.074327 C -133.323995 143.094172 -133.502996 142.110925 -133.657587 141.12304 C -133.810551 140.135155 -133.939106 139.144178 -134.041624 138.15011 C -134.14577 137.157587 -134.222252 136.161972 -134.272698 135.163265 C -134.32477 134.166104 -134.34918 133.168943 -134.34918 132.170236 C -134.34918 131.17153 -134.32477 130.172823 -134.272698 129.175662 C -134.222252 128.178501 -134.14577 127.182886 -134.041624 126.188817 C -133.939106 125.196295 -133.810551 124.205318 -133.657587 123.217433 C -133.502996 122.229548 -133.323995 121.246301 -133.118958 120.266146 C -132.913922 119.285991 -132.682848 118.31202 -132.427366 117.344233 C -132.173511 116.3749 -131.891992 115.413296 -131.587691 114.457877 C -131.281763 113.502458 -130.953054 112.553223 -130.598307 111.613263 C -130.243561 110.673304 -129.866033 109.741074 -129.464096 108.819667 C -129.062158 107.896713 -128.635812 106.983036 -128.185056 106.081726 C -127.735928 105.17887 -127.264018 104.286837 -126.767698 103.405625 C -126.271379 102.524413 -125.753905 101.655569 -125.213649 100.799093 C -124.673394 99.942616 -124.110356 99.100054 -123.526164 98.268314 C -122.941971 97.438119 -122.336625 96.621839 -121.710123 95.819472 C -121.083622 95.018652 -120.435966 94.230199 -119.768782 93.458752 C -119.101599 92.687305 -118.414888 91.931318 -117.70865 91.190791 C -117.002412 90.450264 -116.276647 89.728288 -115.532982 89.021773 C -114.789316 88.315257 -114.027751 87.627294 -113.248285 86.956336 C -112.46882 86.285378 -111.673082 85.632972 -110.859443 84.999118 C -110.045805 84.36681 -109.217522 83.751507 -108.372965 83.156303 C -107.526781 82.562644 -106.667579 81.987537 -105.793732 81.432529 C -104.918257 80.87752 -104.029764 80.342609 -103.128253 79.829341 C -102.225114 79.316074 -101.310585 78.82445 -100.383038 78.352925 C -99.453863 77.882945 -98.514924 77.433063 -97.564595 77.006371 C -96.612638 76.579679 -95.650917 76.174631 -94.679433 75.792772 C -93.707949 75.410914 -92.726702 75.050699 -91.73569 74.71522 C -90.746306 74.378195 -89.747158 74.06436 -88.739874 73.775261 C -87.734217 73.484616 -86.720424 73.218706 -85.698495 72.975986 C -84.678192 72.733266 -83.653008 72.515282 -82.621315 72.318942 C -81.589621 72.124148 -80.553046 71.95409 -79.511589 71.807221 C -78.47176 71.660352 -77.427048 71.538219 -76.380709 71.440822 C -75.334371 71.343425 -74.284777 71.269218 -73.233557 71.221292 C -72.182336 71.171821 -71.131115 71.147085 -70.079895 71.147085 C -69.027047 71.147085 -67.975826 71.171821 -66.924606 71.221292 C -65.875012 71.269218 -64.825419 71.343425 -63.77908 71.440822 C -62.731114 71.538219 -61.68803 71.660352 -60.646573 71.807221 C -59.606743 71.95409 -58.570168 72.124148 -57.538475 72.318942 C -56.506782 72.515282 -55.47997 72.733266 -54.459668 72.975986 C -53.439366 73.218706 -52.425572 73.484616 -51.418288 73.775261 C -50.412631 74.06436 -49.413484 74.378195 -48.422472 74.71522 C -47.433088 75.050699 -46.45184 75.410914 -45.478729 75.792772 C -44.507245 76.174631 -43.545525 76.579679 -42.595195 77.006371 C -41.643238 77.433063 -40.7043 77.882945 -39.776752 78.352925 C -38.849205 78.82445 -37.934675 79.316074 -37.031537 79.829341 C -36.130026 80.342609 -35.241533 80.87752 -34.366058 81.432529 C -33.49221 81.987537 -32.631381 82.562644 -31.786825 83.156303 C -30.942268 83.751507 -30.112357 84.36681 -29.300346 84.999118 C -28.486708 85.632972 -27.69097 86.285378 -26.911504 86.956336 C -26.132039 87.627294 -25.370473 88.315257 -24.626808 89.021773 C -23.881516 89.728288 -23.157377 90.450264 -22.451139 91.190791 C -21.744901 91.931318 -21.058191 92.687305 -20.391007 93.458752 C -19.723824 94.230199 -19.076168 95.018652 -18.449667 95.819472 C -17.823165 96.621839 -17.217818 97.438119 -16.633626 98.268314 C -16.049434 99.100054 -15.486396 99.942616 -14.94614 100.799093 C -14.405885 101.655569 -13.886783 102.524413 -13.392091 103.405625 C -12.895772 104.286837 -12.422235 105.17887 -11.973106 106.081726 C -11.523978 106.983036 -11.097631 107.896713 -10.695694 108.819667 C -10.293757 109.741074 -9.914601 110.673304 -9.561482 111.613263 C -9.206736 112.553223 -8.876399 113.502458 -8.572098 114.457877 C -8.26617 115.413296 -7.986279 116.3749 -7.730796 117.344233 C -7.475314 118.31202 -7.245868 119.285991 -7.040831 120.266146 C -6.835794 121.246301 -6.656794 122.229548 -6.502203 123.217433 C -6.347611 124.205318 -6.219057 125.196295 -6.116538 126.188817 C -6.01402 127.182886 -5.937538 128.178501 -5.885465 129.175662 C -5.835019 130.172823 -5.808983 131.17153 -5.808983 132.170236 Z M -5.808983 132.170236 " stroke="#000000" stroke-width="0.194" stroke-opacity="1" stroke-miterlimit="4"/></g><g clip-path="url(#d535238065)"><path fill="#ffffff" d="M 468.632812 587.761719 L 656.75 587.761719 L 656.75 555.589844 C 656.75 551.429688 660.15625 548.023438 664.320312 548.023438 C 666.210938 548.023438 668.105469 548.777344 669.429688 549.914062 L 781.277344 637.90625 L 776.546875 643.960938 L 781.277344 637.90625 C 784.496094 640.554688 785.0625 645.285156 782.414062 648.503906 C 782.035156 649.261719 781.464844 649.636719 780.898438 650.015625 L 669.050781 738.007812 C 665.832031 740.65625 661.101562 740.089844 658.453125 736.875 C 657.316406 735.359375 656.75 733.65625 656.75 732.140625 L 656.75 699.972656 L 468.632812 699.972656 C 464.46875 699.972656 461.0625 696.757812 461.0625 692.402344 L 461.0625 595.328125 C 461.0625 591.167969 464.46875 587.761719 468.632812 587.761719 Z M 664.320312 602.898438 L 476.203125 602.898438 L 476.203125 684.835938 L 664.320312 684.835938 C 668.671875 684.835938 671.890625 688.242188 671.890625 692.402344 L 671.890625 716.625 L 764.246094 643.960938 L 671.890625 571.296875 L 671.890625 595.328125 C 671.890625 599.492188 668.671875 602.898438 664.320312 602.898438 Z M 664.320312 602.898438 " fill-opacity="1" fill-rule="nonzero"/></g><path fill="#ffffff" d="M 517.835938 651.53125 C 522 651.53125 525.40625 648.125 525.40625 643.960938 C 525.40625 639.796875 522 636.390625 517.835938 636.390625 L 504.777344 636.390625 L 504.777344 630.90625 L 517.835938 630.90625 C 522 630.90625 525.40625 627.5 525.40625 623.335938 C 525.40625 619.171875 522 615.765625 517.835938 615.765625 L 497.210938 615.765625 C 493.046875 615.765625 489.640625 619.171875 489.640625 623.335938 L 489.640625 643.960938 C 489.640625 648.125 493.046875 651.53125 497.210938 651.53125 Z M 517.835938 651.53125 " fill-opacity="1" fill-rule="nonzero"/><path fill="#ffffff" d="M 517.835938 671.96875 C 522 671.96875 525.40625 668.5625 525.40625 664.398438 C 525.40625 660.234375 522 656.828125 517.835938 656.828125 L 504.777344 656.828125 L 504.777344 651.53125 L 517.835938 651.53125 C 522 651.53125 525.40625 648.125 525.40625 643.960938 C 525.40625 639.796875 522 636.390625 517.835938 636.390625 L 497.210938 636.390625 C 493.046875 636.390625 489.640625 639.796875 489.640625 643.960938 L 489.640625 664.398438 C 489.640625 668.5625 493.046875 671.96875 497.210938 671.96875 Z M 517.835938 671.96875 " fill-opacity="1" fill-rule="nonzero"/><path fill="#ffffff" d="M 548.875 620.496094 C 546.035156 617.46875 541.304688 617.46875 538.277344 620.496094 C 535.25 623.335938 535.25 628.253906 538.277344 631.09375 L 574.425781 667.425781 C 577.453125 670.265625 582.183594 670.265625 585.210938 667.425781 C 588.238281 664.398438 588.238281 659.667969 585.210938 656.640625 Z M 548.875 620.496094 " fill-opacity="1" fill-rule="nonzero"/><path fill="#ffffff" d="M 585.210938 631.09375 C 588.238281 628.253906 588.238281 623.335938 585.210938 620.496094 C 582.183594 617.46875 577.453125 617.46875 574.425781 620.496094 L 538.277344 656.640625 C 535.25 659.667969 535.25 664.398438 538.277344 667.425781 C 541.304688 670.265625 546.035156 670.265625 548.875 667.425781 Z M 585.210938 631.09375 " fill-opacity="1" fill-rule="nonzero"/><path fill="#ffffff" d="M 615.871094 626.363281 C 615.871094 622.199219 612.464844 618.792969 608.300781 618.792969 C 604.136719 618.792969 600.730469 622.199219 600.730469 626.363281 L 600.730469 661.9375 C 600.730469 666.101562 604.136719 669.507812 608.300781 669.507812 C 612.464844 669.507812 615.871094 666.101562 615.871094 661.9375 Z M 615.871094 626.363281 " fill-opacity="1" fill-rule="nonzero"/><path fill="#ffffff" d="M 657.695312 626.363281 C 657.695312 622.199219 654.289062 618.792969 650.125 618.792969 C 645.960938 618.792969 642.554688 622.199219 642.554688 626.363281 L 642.554688 661.9375 C 642.554688 666.101562 645.960938 669.507812 650.125 669.507812 C 654.289062 669.507812 657.695312 666.101562 657.695312 661.9375 Z M 657.695312 626.363281 " fill-opacity="1" fill-rule="nonzero"/><path fill="#ffffff" d="M 632.335938 618.792969 C 628.171875 618.792969 624.765625 622.199219 624.765625 626.363281 C 624.765625 630.527344 628.171875 633.933594 632.335938 633.933594 L 667.914062 633.933594 C 672.078125 633.933594 675.484375 630.527344 675.484375 626.363281 C 675.484375 622.199219 672.078125 618.792969 667.914062 618.792969 Z M 632.335938 618.792969 " fill-opacity="1" fill-rule="nonzero"/></svg>