<?xml version="1.0" encoding="utf-8"?>
<!-- Generator: Adobe Illustrator 23.1.0, SVG Export Plug-In . SVG Version: 6.00 Build 0)  -->
<svg version="1.1" xmlns="http://www.w3.org/2000/svg" xmlns:xlink="http://www.w3.org/1999/xlink" x="0px" y="0px"
	 viewBox="0 0 600 600" enable-background="new 0 0 600 600" xml:space="preserve">
<g id="圖層_3">
	<linearGradient id="SVGID_1_" gradientUnits="userSpaceOnUse" x1="300" y1="600" x2="300" y2="-9.094947e-13">
		<stop  offset="0" style="stop-color:#05142D"/>
		<stop  offset="1" style="stop-color:#061955"/>
	</linearGradient>
	<rect fill="url(#SVGID_1_)" width="600" height="600"/>
</g>
<g id="圖層_5">
	<circle fill="#FFFFFF" cx="523.82" cy="91.74" r="1.5"/>
	<circle fill="#FFFFFF" cx="547.59" cy="131.15" r="1.5"/>
	<circle fill="#FFFFFF" cx="590.41" cy="53.74" r="1.5"/>
	<circle fill="#FFFFFF" cx="352.81" cy="502.57" r="1.5"/>
	<circle fill="#FFFFFF" cx="574.98" cy="522.69" r="1.5"/>
	<circle fill="#FFFFFF" cx="317.35" cy="520.29" r="1.5"/>
	<circle fill="#FFFFFF" cx="237.47" cy="439.79" r="1.5"/>
	<circle fill="#FFFFFF" cx="327.85" cy="20.09" r="1.5"/>
	<circle fill="#FFFFFF" cx="330.67" cy="60.8" r="1.5"/>
	<circle fill="#FFFFFF" cx="436.15" cy="5.77" r="1.5"/>
	<circle fill="#FFFFFF" cx="407.99" cy="33.03" r="1.5"/>
	<circle fill="#FFFFFF" cx="161.8" cy="1.74" r="1.5"/>
	<circle fill="#FFFFFF" cx="98.18" cy="43.12" r="1.5"/>
</g>
<g id="圖層_4">
	<g>
		<defs>
			<rect id="SVGID_2_" x="0.59" y="0.59" width="600" height="600"/>
		</defs>
		<clipPath id="SVGID_3_">
			<use xlink:href="#SVGID_2_"  overflow="visible"/>
		</clipPath>
		<rect x="-7" y="-4.88" clip-path="url(#SVGID_3_)" fill="#344E9B" width="96.35" height="614.12"/>
		<rect x="65" y="363.59" clip-path="url(#SVGID_3_)" fill="#344E9B" width="112.24" height="286.94"/>
		<rect x="152.88" y="471.59" clip-path="url(#SVGID_3_)" fill="#344E9B" width="96.35" height="184.24"/>
		<rect x="223.82" y="528.76" clip-path="url(#SVGID_3_)" fill="#344E9B" width="386.47" height="90"/>
	</g>
</g>
<g id="圖層_2">
	<g>
		<path fill="#FCD87D" d="M129.59,73.82c0,0-0.38-29.91,32.12-45.53c31.94-15.35,58.35-12.94,71.06-11.53
			c12.71,1.41,53.88,7.29,70.12,27.06s16.94,33.88,16.94,33.88s16.94-12,51.53-7.76c34.59,4.24,47.5,36.28,51.53,43.06
			c7.76,13.06,12.71,34.59,12.71,34.59L228.06,257l-38.12,64.24l69.88,81.18c0,0-24.71-4.94-39.53-10.59
			c-14.82-5.65-19.06-7.06-24-19.06s-6.35-29.65-6.35-29.65s-50.82-2.12-67.06-29.65S115.12,245,115.12,245S82.1,234.39,77,197
			c-0.13-0.97-0.25-1.94-0.36-2.9c-5-43.46,12.77-86.44,46.23-114.62L129.59,73.82z"/>
		<path fill="#DC3737" d="M204.76,67.82c0,0-34.59-9.18-57.18,12s-40.94,65.65-27.53,92.47s23.29,31.76,17.65,37.41
			c-5.65,5.65-23.29,21.88-12.71,40.24s28.94,30.35,36.71,28.94c7.76-1.41,12-25.41,12-25.41l31.76-81.88l96.71-26.12l50.82-4.24
			c0,0-5.65-29.65-19.06-45.18C320.53,80.53,281,69.24,281,69.24s-2.82-14.12-28.94-14.12S204.76,67.82,204.76,67.82z"/>
		<path fill="#F8BC83" d="M208.29,78.88c0,0-50.55-0.1-67.76,34.82c-12.35,25.06-4.71,46.26,14.82,48.71
			c8.47,1.06,15.53-2.12,15.53-2.12s-5.41,39.53,11.53,43.06c16.94,3.53,73.18-52.24,73.18-52.24l76.24,4.24l24-16.24
			c0,0-9.18-31.76-27.53-45.88c-18.35-14.12-50.82-15.29-50.82-15.29s-7.76-17.88-36.71-16.47S208.29,78.88,208.29,78.88z"/>
	</g>
	<linearGradient id="SVGID_4_" gradientUnits="userSpaceOnUse" x1="158.1765" y1="334.8848" x2="574.647" y2="334.8848">
		<stop  offset="0" style="stop-color:#DC3737"/>
		<stop  offset="1" style="stop-color:#AE1F1F"/>
	</linearGradient>
	<path fill="url(#SVGID_4_)" d="M565.47,380.18l8.12,26.82l1.06,36.71l-5.65,30c0,0-8.82,25.06-25.76,35.65
		s-41.65,17.29-41.65,17.29s-23.29,4.24-33.88,1.06c-10.59-3.18-63.18-19.41-63.18-19.41s-61.41-28.59-79.41-42.35
		c-18-13.76-66.35-54.35-66.35-54.35l-56.12-57.88c0,0-31.76-41.65-36.35-58.59c-4.59-16.94-8.12-54.71-8.12-54.71
		s4.59-37.41,16.24-50.47c11.65-13.06,22.59-26.12,22.59-26.12s23.29-16.59,40.94-19.06c17.65-2.47,39.88-3.88,39.88-3.88
		l38.82,0.71l-27.53,16.94l-28.94,29.65c0,0-17.65,37.76-11.29,54.71s33.88,61.76,33.88,61.76s57.88,58.24,66.35,64.94
		c8.47,6.71,50.12,45.53,82.59,54.71c32.47,9.18,75.18,8.12,75.18,8.12S533,426.06,539,419.35
		C545,412.65,565.47,380.18,565.47,380.18z"/>
	<path fill="#FCBF85" d="M288.29,141c0,0-32-2.35-55.06,16.94s-16,28.24-16,28.24s19.76-4.24,27.76,8.94s28.71,72.47,16,99.76
		C248.29,322.18,243.59,325,243.59,325s-13.65,3.76,0.47,40.47c14.12,36.71,95.53,102.12,95.53,102.12s35.76,25.88,45.18,30.59
		c9.41,4.71-32.47-14.59-32.47-14.59L301,447.82l-53.65-44.71L198.41,349c0,0-34.35-45.65-36.71-70.12
		c-2.35-24.47-6.59-46.12,4.71-70.12c11.29-24,22.59-40.47,22.59-40.47l21.18-12.24l32.94-12.71L288.29,141z"/>
	<path fill="#A4E8F2" d="M307.47,145.82c0,0-33.53,19.06-37.76,28.94s-17.29,32.12-17.29,32.12s-7.06,18.35-4.24,30
		s13.76,37.41,13.76,37.41l41.65,53.29l79.76,68.82l40.59,24.71l46.94,12l39.18-2.12l23.65-10.59l14.82-12.71l15.18-25.76l16.59-60
		l-1.06-45.18l-10.94-45.18l-20.82-42l-27.88-33.88l-34.94-21.18c0,0-20.82-13.06-43.76-13.76c-22.94-0.71-30.35-2.47-30.35-2.47
		l-46.94,6.35L307.47,145.82z"/>
	<g>
		<path fill="#4D6C9D" d="M546.41,300.41c0,0-1.41,7.41-14.12,9.53c-12.71,2.12-21.53,4.94-22.24,15.53
			c-0.71,10.59-3.53,15.88,3.88,19.76c7.41,3.88,14.82,8.65,20.12,17.82c5.29,9.18,9.06,17.82,15.41,12.53
			c6.35-5.29,19.53-52.59,18.82-66.35s-2.12-23.29-8.82-18.71C552.76,295.12,546.41,300.41,546.41,300.41z"/>
		<path fill="#4D6C9D" d="M345.47,140.53c0,0,54.52-21.3,114.26-5.54c76.33,20.13,54.8,60.63,43.97,69.42
			c-7.1,5.77-17.57,3.88-33.88,0c-18.87-4.49-31.6-10.5-36.59-12.35c-5.06-1.88-11.76-9.88-17.24-19.41
			c-4.58-7.99-4.26-13.79-14.47-17.12c-10.76-3.51-27.73,7.98-30.88,15.71c-4.44,10.88-6.88,21.18-13.8,28.01
			c-15.83,15.65-29.73-1.07-41.5-3.42c-16.35-3.27-6.11-27.1,3.54-38.75C328.55,145.42,345.47,140.53,345.47,140.53z"/>
	</g>
	<polygon fill="#8FC26F" points="276.24,194.71 273.24,207.59 273.94,272 277.12,291.94 295.35,316.76 339.12,361.71 391.82,402.18 
		420.29,417.94 457.94,413.24 499.82,407.35 529.24,396.76 542.18,388.53 546.65,378.18 542.41,374.88 530.88,375.59 533.71,368.53 
		530.18,359.35 519.82,359.59 514.65,364.53 512.53,355.35 504.53,355.82 494.41,365.71 475.82,368.76 455.35,367.35 459.35,362.41 
		478.18,354.65 491.82,341.47 495.35,325.94 497.24,305.71 508.29,296.53 523.12,297.24 531.59,295.35 533.71,285.24 529.71,269.71 
		523.35,265.47 517.71,264.29 511.12,269.94 491.35,267.82 476.76,237 459.12,218.65 425,209.24 409,208.53 405.47,195.59 
		408.06,180.29 403.35,168.29 395.12,167.35 372.76,176.76 369,187.35 370.65,192.76 365.94,213.71 342.41,225 326.88,245.94 
		324.29,275.82 324.29,282.88 318.18,262.88 316.29,230.65 319.35,219.82 325.94,206.65 327.12,196.29 322.18,193.71 311.35,197.71 
		303.82,187.82 297.71,186.65 292.29,192.06 290.18,197.94 	"/>
	<path fill="#FCBF85" d="M264.76,183.35c0,0,10.35-10.35,18.35-18.35s28.71-17.88,38.59-6.12s32.94,47.06,30.59,82.82
		c-2.35,35.76-0.47,60.24-14.12,77.65c-13.65,17.41-38.59,2.82-38.59,2.82l-45.65-58.82l-6.59-33.88l11.76-37.65L264.76,183.35z"/>
	<g>
		<path fill="none" stroke="#252526" stroke-width="7" stroke-linecap="round" stroke-linejoin="round" stroke-miterlimit="10" d="
			M328.65,295.47c0,0-10.59-33.88,3.53-57.18s34.59-24.71,34.59-24.71l4.59-21.53c0,0-8.82-16.94,18-24
			c26.82-7.06,16.24,28.24,16.24,28.24l3.53,11.65c0,0,26.12-1.06,49.76,12s32.12,48,32.12,48l20.82,1.76
			c0,0,10.94-19.06,20.47,9.18s-22.24,16.59-22.24,16.59L496.65,305c0,0,1.76,27.18-8.82,39.88
			c-10.59,12.71-33.53,20.47-33.53,20.47"/>
		<path fill="none" stroke="#252526" stroke-width="7" stroke-linecap="round" stroke-linejoin="round" stroke-miterlimit="10" d="
			M401.71,358.29c0,0,35.29,8.47,58.94,10.24s34.59-2.12,34.59-2.12s4.59-11.29,12.71-12.35c8.12-1.06,6.47,10.24,6.47,10.24
			s11.29-10,16.94-4c5.65,6-0.94,15.53-0.94,15.53s10.68-4.64,14.37-0.01c2.25,2.82,0.37,6.24-1.19,8.56
			c-3.12,4.64-4.72,5.71-9.11,8.58c-5.78,3.78-17.05,8.31-27.78,12.29c-16.43,6.09-85,11.76-85,11.76"/>
		<path fill="none" stroke="#252526" stroke-width="7" stroke-linecap="round" stroke-linejoin="round" stroke-miterlimit="10" d="
			M335.71,307.47c0,0-12.71-17.29-16.59-37.41s-1.53-48.24-1.53-48.24s13.41-16.94,9.53-24.71s-15.88,0.35-15.88,0.35
			s-3.18-12-10.94-12s-9.88,11.29-9.88,11.29s-9.53-4.94-13.41-1.76s-3.88,13.06-3.88,13.06s-1.29,41.53,1.88,66.59
			s10,29.18,10,29.18"/>
	</g>
	<g>
		<path fill="none" stroke="#252526" stroke-width="7" stroke-linecap="round" stroke-linejoin="round" stroke-miterlimit="10" d="
			M366.06,233.35l3.18,57.18c0,0,0.35,2.47-4.24,2.82s-28.94-25.41-28.94-25.41"/>
		<path fill="none" stroke="#252526" stroke-width="7" stroke-linecap="round" stroke-linejoin="round" stroke-miterlimit="10" d="
			M462.76,326.88l-55.41-5.65c0,0-6,0-5.29,3.88c0.71,3.88,26.47,28.94,26.47,28.94"/>
	</g>
	<g>
		
			<path fill="#FFFFFF" stroke="#252526" stroke-width="7" stroke-linecap="round" stroke-linejoin="round" stroke-miterlimit="10" d="
			M337.12,270.76c0,0-8.32,6.88-5.06,11.41c5.41,7.53,13.88-3.06,13.88-3.06L337.12,270.76z"/>
		
			<path fill="#FFFFFF" stroke="#252526" stroke-width="7" stroke-linecap="round" stroke-linejoin="round" stroke-miterlimit="10" d="
			M416.18,341.35c0,0-6,6-5.65,10.94c0.35,4.94,7.06,6.35,9.53,3.53c2.47-2.82,5.29-5.65,5.29-5.65L416.18,341.35z"/>
	</g>
	<path fill="none" stroke="#252526" stroke-width="7" stroke-linecap="round" stroke-linejoin="round" stroke-miterlimit="10" d="
		M271.52,174.18c-18.07,18.76-26.61,44.93-22.2,70.6c0.12,0.7,0.25,1.4,0.39,2.1c8.65,44.5,127.06,161.88,190.59,179.29
		c53.98,14.79,89.88,4.71,109.65-20.24c13.09-16.51,39.53-80.47,26.82-142.12s-45.18-115.29-109.65-136.47
		c-67.17-22.06-128.47,2.35-156.24,16C295.98,150.68,281.62,163.69,271.52,174.18z"/>
	<path fill="none" stroke="#252526" stroke-width="7" stroke-linecap="round" stroke-linejoin="round" stroke-miterlimit="10" d="
		M312.06,141.24c0,0-108-16.94-140.47,55.06c-35.79,79.36,12.19,133.72,38.12,165.41c38.12,46.59,130.59,124,197.65,148
		c61.44,21.99,98.55,26.45,131.29,1.18c26.82-20.71,34.82-42.35,36.71-76c1.07-19.04-7.76-57.18-7.76-57.18"/>
	<g>
		<path fill="#FCD87D" d="M21.41,371.04l54.16,108.22c2.8,5.59,9.34,8.19,15.2,6.05l24.16-8.81c6.04-2.2,9.37-8.69,7.62-14.89
			l-33.5-118.79c-2.02-7.16-9.88-10.9-16.71-7.95l-44.82,19.38C21.04,357.05,18.25,364.72,21.41,371.04z"/>
		<path fill="#FCD87D" d="M145.28,386.34l8.58,74.98c0.72,6.26,6.06,10.97,12.36,10.9l16.46-0.2c6.47-0.08,11.77-5.16,12.13-11.62
			l4.24-77c0.41-7.41-5.8-13.49-13.2-12.93l-29.29,2.22C149.61,373.21,144.48,379.41,145.28,386.34z"/>
		<path fill="#FCD87D" d="M158.91,502.52l0.5,6.33c0.5,6.4,5.84,11.33,12.26,11.33h6.04c6.58,0,11.99-5.18,12.28-11.76l0.3-6.81
			c0.32-7.34-5.83-13.32-13.16-12.8l-6.83,0.49C163.48,489.78,158.38,495.72,158.91,502.52z"/>
		<path fill="#FCD87D" d="M130.78,504.2l3.87,12.02c1.88,5.84-0.83,12.18-6.36,14.85l-7.29,3.51c-5.43,2.62-11.95,0.91-15.41-4.02
			l-7.2-10.29c-4.32-6.17-2.12-14.74,4.63-18.07l10.62-5.24C120.37,493.63,128.48,497.06,130.78,504.2z"/>
	</g>
	
		<ellipse transform="matrix(0.9733 -0.2294 0.2294 0.9733 -42.5454 130.1216)" fill="#FFFFFF" cx="538.41" cy="248.06" rx="27.53" ry="43.53"/>
	
		<path fill="#F26F84" stroke="#252526" stroke-width="7" stroke-linecap="round" stroke-linejoin="round" stroke-miterlimit="10" d="
		M380.11,307.21l7.3,7.77c0.78,0.83,0.97,2.05,0.47,3.08l-5.9,12.18c-0.79,1.63-2.91,2.06-4.28,0.87l-9.14-7.96
		c-1.03-0.9-1.24-2.41-0.5-3.56l7.75-11.99C376.77,306.1,378.89,305.9,380.11,307.21z"/>
</g>
</svg>
